<svg width="832" height="723" viewBox="0 0 832 723" fill="none" xmlns="http://www.w3.org/2000/svg">
<path d="M161.085 72.4879C177.204 68.1691 191.758 67.5069 207.88 67.407C207.923 76.0878 240.397 69.9387 248.473 69.9387C263.945 69.9387 279.866 59.1584 293.013 51.9531C310.772 42.2202 320.189 24.5911 336.002 13.9991C359.717 -1.88647 386.882 1.11172 413.947 1.11172C428.546 1.11172 447.159 -1.73277 461.587 1.6782C473.741 4.55153 487.489 9.9514 499.643 11.3083C516.499 13.1901 525.498 41.911 541.505 32.9761C553.676 26.1823 569.186 26.6032 583.367 26.6032C619.997 26.6032 660.783 27.7664 694.857 43.1727C722.76 55.7886 748.764 75.4841 767.164 99.2539C774.948 109.31 773.647 129.372 773.647 141.173C773.647 158.322 776.214 177.376 773.083 194.281C770.228 209.705 768.082 224.883 764.908 240.448C762.339 253.051 755.519 267.023 767.446 273.871C783.369 283.013 790.003 294.274 798.454 309.559C809.921 330.296 814.521 352.356 822.416 375.27C831.571 401.845 832 426.817 832 454.86C832 474.516 817.769 495.296 804.656 508.959C790.209 524.012 781.228 533.899 762.09 543.514C749.399 549.889 736.699 556.127 723.892 562.066C713.703 566.791 692.283 575.19 684.85 583.592C677.862 591.49 666.106 600.615 656.942 606.534C636.653 619.639 627.506 638.974 611.275 656.243C580.749 688.718 552.685 714.857 506.409 719.405C460.957 723.872 410.558 726.954 366.588 711.049C345.921 703.574 325.284 696.065 304.993 687.824C289.801 681.653 272.735 668.245 257.353 671.679C238.539 675.88 217.11 686.833 197.731 686.833C182.421 686.833 167.76 685.744 152.628 683.717C135.973 681.486 112.415 680.884 97.2351 672.671C61.3242 653.242 27.7833 612.792 25.2104 570.138C23.1248 535.562 25.0379 499.735 29.7208 465.623C34.1499 433.359 5.74445 402.466 2.23581 370.738C-0.501315 345.987 -2.37288 323.612 6.88711 299.929C14.4921 280.478 27.3615 256.534 46.6346 245.972C79.0769 228.192 104.313 191.751 106.397 154.061C107.566 132.912 115.836 104.906 133.036 91.4649C142.794 83.8395 148.32 75.9079 161.085 72.4879Z" fill="#F8DEDE"/>
</svg>
